<svg xmlns="http://www.w3.org/2000/svg" viewBox="0 0 1092 1092" role="img" aria-label="Yeso cartón Cleaneo: las perforaciones absorben el sonido y reducen la reverberación"><style>.b{transform-box:fill-box;transform-origin:center}@keyframes k1{0.000%{opacity:0;transform:translate(280px,760px) scale(1,1)}3.750%{opacity:0;transform:translate(280px,760px) scale(1,1)}5.000%{opacity:1;transform:translate(280px,760px) scale(1,1)}21.250%{opacity:1;transform:translate(280px,250px) scale(1,1)}21.875%{opacity:1;transform:translate(280px,250px) scale(1,-1)}36.250%{opacity:0;transform:translate(280px,700px) scale(1,-1)}36.375%{opacity:0;transform:translate(280px,700px) scale(1,-1)}100.000%{opacity:0;transform:translate(280px,700px) scale(1,-1)}}.k1{animation:k1 4.80s ease-in-out infinite}@keyframes k2{0.000%{opacity:0;transform:translate(280px,760px) scale(1,1)}33.750%{opacity:0;transform:translate(280px,760px) scale(1,1)}35.000%{opacity:1;transform:translate(280px,760px) scale(1,1)}51.250%{opacity:1;transform:translate(280px,250px) scale(1,1)}51.875%{opacity:1;transform:translate(280px,250px) scale(1,-1)}66.250%{opacity:0;transform:translate(280px,700px) scale(1,-1)}66.375%{opacity:0;transform:translate(280px,700px) scale(1,-1)}100.000%{opacity:0;transform:translate(280px,700px) scale(1,-1)}}.k2{animation:k2 4.80s ease-in-out infinite}@keyframes k3{0.000%{opacity:0;transform:translate(280px,760px) scale(1,1)}63.750%{opacity:0;transform:translate(280px,760px) scale(1,1)}65.000%{opacity:1;transform:translate(280px,760px) scale(1,1)}81.250%{opacity:1;transform:translate(280px,250px) scale(1,1)}81.875%{opacity:1;transform:translate(280px,250px) scale(1,-1)}96.250%{opacity:0;transform:translate(280px,700px) scale(1,-1)}96.375%{opacity:0;transform:translate(280px,700px) scale(1,-1)}100.000%{opacity:0;transform:translate(280px,700px) scale(1,-1)}}.k3{animation:k3 4.80s ease-in-out infinite}@keyframes k4{0.000%{opacity:0;transform:translate(810px,760px) scale(1,1)}3.750%{opacity:0;transform:translate(810px,760px) scale(1,1)}5.000%{opacity:1;transform:translate(810px,760px) scale(1,1)}20.000%{opacity:1;transform:translate(810px,235px) scale(1,1)}27.500%{opacity:0;transform:translate(810px,150px) scale(0.35,0.35)}27.625%{opacity:0;transform:translate(810px,150px) scale(0.35,0.35)}100.000%{opacity:0;transform:translate(810px,150px) scale(0.35,0.35)}}.k4{animation:k4 4.80s ease-in-out infinite}@keyframes k5{0.000%{opacity:0;transform:translate(810px,760px) scale(1,1)}33.750%{opacity:0;transform:translate(810px,760px) scale(1,1)}35.000%{opacity:1;transform:translate(810px,760px) scale(1,1)}50.000%{opacity:1;transform:translate(810px,235px) scale(1,1)}57.500%{opacity:0;transform:translate(810px,150px) scale(0.35,0.35)}57.625%{opacity:0;transform:translate(810px,150px) scale(0.35,0.35)}100.000%{opacity:0;transform:translate(810px,150px) scale(0.35,0.35)}}.k5{animation:k5 4.80s ease-in-out infinite}@keyframes k6{0.000%{opacity:0;transform:translate(810px,760px) scale(1,1)}63.750%{opacity:0;transform:translate(810px,760px) scale(1,1)}65.000%{opacity:1;transform:translate(810px,760px) scale(1,1)}80.000%{opacity:1;transform:translate(810px,235px) scale(1,1)}87.500%{opacity:0;transform:translate(810px,150px) scale(0.35,0.35)}87.625%{opacity:0;transform:translate(810px,150px) scale(0.35,0.35)}100.000%{opacity:0;transform:translate(810px,150px) scale(0.35,0.35)}}.k6{animation:k6 4.80s ease-in-out infinite}@keyframes k7{0.000%{opacity:1}90.000%{opacity:1}98.750%{opacity:0}100.000%{opacity:0}}.k7{animation:k7 4.80s linear infinite}@media (prefers-reduced-motion:reduce){*{animation:none!important}}</style><defs></defs><rect width="1092" height="1092" fill="#FFFDF9"/><g class="k7"><rect width="1092" height="26" fill="#3E4A3C"/><rect x="0" y="26" width="1092" height="1066" fill="#EFE7DA"/><rect x="545" y="26" width="4" height="1066" fill="#2B2A26"/><rect x="60" y="180" width="440" height="36" fill="#FFFDF9" stroke="#2B2A26" stroke-width="4"/><rect x="590" y="180" width="440" height="36" fill="#FFFDF9" stroke="#2B2A26" stroke-width="4"/><rect x="590" y="100" width="440" height="80" fill="#FFFDF9" stroke="#2B2A26" stroke-width="4"/><path d="M993 135L961 164" stroke="#2B2A26" stroke-width="4" stroke-linecap="round" opacity="0.6"/><path d="M732 141L691 153" stroke="#2B2A26" stroke-width="4" stroke-linecap="round" opacity="0.6"/><path d="M834 101L846 145" stroke="#2B2A26" stroke-width="4" stroke-linecap="round" opacity="0.6"/><path d="M663 128L630 133" stroke="#2B2A26" stroke-width="4" stroke-linecap="round" opacity="0.6"/><path d="M704 126L676 135" stroke="#2B2A26" stroke-width="4" stroke-linecap="round" opacity="0.6"/><path d="M794 137L766 156" stroke="#2B2A26" stroke-width="4" stroke-linecap="round" opacity="0.6"/><path d="M626 142L650 145" stroke="#2B2A26" stroke-width="4" stroke-linecap="round" opacity="0.6"/><path d="M670 135L695 165" stroke="#2B2A26" stroke-width="4" stroke-linecap="round" opacity="0.6"/><path d="M652 119L691 122" stroke="#2B2A26" stroke-width="4" stroke-linecap="round" opacity="0.6"/><path d="M950 118L966 133" stroke="#2B2A26" stroke-width="4" stroke-linecap="round" opacity="0.6"/><path d="M853 122L887 137" stroke="#2B2A26" stroke-width="4" stroke-linecap="round" opacity="0.6"/><path d="M835 129L868 146" stroke="#2B2A26" stroke-width="4" stroke-linecap="round" opacity="0.6"/><path d="M814 126L852 147" stroke="#2B2A26" stroke-width="4" stroke-linecap="round" opacity="0.6"/><path d="M978 150L942 150" stroke="#2B2A26" stroke-width="4" stroke-linecap="round" opacity="0.6"/><path d="M752 104L740 136" stroke="#2B2A26" stroke-width="4" stroke-linecap="round" opacity="0.6"/><path d="M795 160L773 172" stroke="#2B2A26" stroke-width="4" stroke-linecap="round" opacity="0.6"/><path d="M975 101L962 127" stroke="#2B2A26" stroke-width="4" stroke-linecap="round" opacity="0.6"/><path d="M907 143L903 184" stroke="#2B2A26" stroke-width="4" stroke-linecap="round" opacity="0.6"/><path d="M611 143L642 155" stroke="#2B2A26" stroke-width="4" stroke-linecap="round" opacity="0.6"/><path d="M750 109L733 126" stroke="#2B2A26" stroke-width="4" stroke-linecap="round" opacity="0.6"/><path d="M717 106L703 131" stroke="#2B2A26" stroke-width="4" stroke-linecap="round" opacity="0.6"/><path d="M609 105L635 126" stroke="#2B2A26" stroke-width="4" stroke-linecap="round" opacity="0.6"/><path d="M618 100L600 130" stroke="#2B2A26" stroke-width="4" stroke-linecap="round" opacity="0.6"/><path d="M646 125L673 136" stroke="#2B2A26" stroke-width="4" stroke-linecap="round" opacity="0.6"/><path d="M753 117L775 133" stroke="#2B2A26" stroke-width="4" stroke-linecap="round" opacity="0.6"/><path d="M746 136L711 149" stroke="#2B2A26" stroke-width="4" stroke-linecap="round" opacity="0.6"/><path d="M773 104L804 125" stroke="#2B2A26" stroke-width="4" stroke-linecap="round" opacity="0.6"/><path d="M785 154L757 162" stroke="#2B2A26" stroke-width="4" stroke-linecap="round" opacity="0.6"/><path d="M761 119L748 140" stroke="#2B2A26" stroke-width="4" stroke-linecap="round" opacity="0.6"/><path d="M709 139L727 181" stroke="#2B2A26" stroke-width="4" stroke-linecap="round" opacity="0.6"/><path d="M766 145L769 170" stroke="#2B2A26" stroke-width="4" stroke-linecap="round" opacity="0.6"/><path d="M861 120L823 130" stroke="#2B2A26" stroke-width="4" stroke-linecap="round" opacity="0.6"/><path d="M825 140L819 184" stroke="#2B2A26" stroke-width="4" stroke-linecap="round" opacity="0.6"/><path d="M886 106L911 140" stroke="#2B2A26" stroke-width="4" stroke-linecap="round" opacity="0.6"/><path d="M625 162L665 168" stroke="#2B2A26" stroke-width="4" stroke-linecap="round" opacity="0.6"/><path d="M864 118L853 152" stroke="#2B2A26" stroke-width="4" stroke-linecap="round" opacity="0.6"/><path d="M734 126L771 132" stroke="#2B2A26" stroke-width="4" stroke-linecap="round" opacity="0.6"/><path d="M981 127L953 140" stroke="#2B2A26" stroke-width="4" stroke-linecap="round" opacity="0.6"/><path d="M721 153L697 158" stroke="#2B2A26" stroke-width="4" stroke-linecap="round" opacity="0.6"/><path d="M974 121L952 140" stroke="#2B2A26" stroke-width="4" stroke-linecap="round" opacity="0.6"/><path d="M1003 124L1021 139" stroke="#2B2A26" stroke-width="4" stroke-linecap="round" opacity="0.6"/><path d="M669 113L650 125" stroke="#2B2A26" stroke-width="4" stroke-linecap="round" opacity="0.6"/><path d="M634 118L671 135" stroke="#2B2A26" stroke-width="4" stroke-linecap="round" opacity="0.6"/><path d="M601 138L613 161" stroke="#2B2A26" stroke-width="4" stroke-linecap="round" opacity="0.6"/><path d="M687 130L710 152" stroke="#2B2A26" stroke-width="4" stroke-linecap="round" opacity="0.6"/><path d="M773 130L755 154" stroke="#2B2A26" stroke-width="4" stroke-linecap="round" opacity="0.6"/><path d="M843 135L867 167" stroke="#2B2A26" stroke-width="4" stroke-linecap="round" opacity="0.6"/><path d="M633 128L644 151" stroke="#2B2A26" stroke-width="4" stroke-linecap="round" opacity="0.6"/><rect x="610" y="180" width="20" height="36" fill="#EFE7DA"/><rect x="664" y="180" width="20" height="36" fill="#EFE7DA"/><rect x="718" y="180" width="20" height="36" fill="#EFE7DA"/><rect x="772" y="180" width="20" height="36" fill="#EFE7DA"/><rect x="826" y="180" width="20" height="36" fill="#EFE7DA"/><rect x="880" y="180" width="20" height="36" fill="#EFE7DA"/><rect x="934" y="180" width="20" height="36" fill="#EFE7DA"/><rect x="988" y="180" width="20" height="36" fill="#EFE7DA"/><g class="k1 " ><g transform="rotate(-90)"><path d="M0 -44Q24 0 0 44M30 -44Q54 0 30 44M60 -44Q84 0 60 44" fill="none" stroke="#2B2A26" stroke-width="7" stroke-linecap="round"/></g></g><g class="k2 " ><g transform="rotate(-90)"><path d="M0 -44Q24 0 0 44M30 -44Q54 0 30 44M60 -44Q84 0 60 44" fill="none" stroke="#2B2A26" stroke-width="7" stroke-linecap="round"/></g></g><g class="k3 " ><g transform="rotate(-90)"><path d="M0 -44Q24 0 0 44M30 -44Q54 0 30 44M60 -44Q84 0 60 44" fill="none" stroke="#2B2A26" stroke-width="7" stroke-linecap="round"/></g></g><g class="k4 " ><g transform="rotate(-90)"><path d="M0 -44Q24 0 0 44M30 -44Q54 0 30 44M60 -44Q84 0 60 44" fill="none" stroke="#2B2A26" stroke-width="7" stroke-linecap="round"/></g></g><g class="k5 " ><g transform="rotate(-90)"><path d="M0 -44Q24 0 0 44M30 -44Q54 0 30 44M60 -44Q84 0 60 44" fill="none" stroke="#2B2A26" stroke-width="7" stroke-linecap="round"/></g></g><g class="k6 " ><g transform="rotate(-90)"><path d="M0 -44Q24 0 0 44M30 -44Q54 0 30 44M60 -44Q84 0 60 44" fill="none" stroke="#2B2A26" stroke-width="7" stroke-linecap="round"/></g></g><g transform="translate(280 900)"><rect x="-24" y="-18" width="26" height="36" fill="#2B2A26"/><path d="M2 -18L38 -44V44L2 18Z" fill="#2B2A26"/></g><g transform="translate(810 900)"><rect x="-24" y="-18" width="26" height="36" fill="#2B2A26"/><path d="M2 -18L38 -44V44L2 18Z" fill="#2B2A26"/></g></g></svg>