<svg xmlns="http://www.w3.org/2000/svg" viewBox="0 0 1092 1092" role="img" aria-label="Panel velo negro: aísla detrás de la fachada con juntas abiertas"><style>.b{transform-box:fill-box;transform-origin:center}@keyframes k1{0.000%{opacity:0;transform:translate(200px,302px) scale(1,1)}5.000%{opacity:0;transform:translate(200px,302px) scale(1,1)}6.000%{opacity:1;transform:translate(200px,302px) scale(1,1)}12.500%{opacity:1;transform:translate(440px,302px) scale(1,1)}16.458%{opacity:1;transform:translate(455.5833333333333px,324.0px) scale(1,1)}20.417%{opacity:1;transform:translate(471.1666666666667px,280.0px) scale(1,1)}24.375%{opacity:1;transform:translate(486.75px,324.0px) scale(1,1)}28.333%{opacity:1;transform:translate(502.3333333333333px,280.0px) scale(1,1)}32.292%{opacity:1;transform:translate(517.9166666666666px,324.0px) scale(1,1)}36.250%{opacity:1;transform:translate(533.5px,302.0px) scale(1,1)}42.500%{opacity:0;transform:translate(543.5px,302px) scale(0.3,0.3)}42.625%{opacity:0;transform:translate(543.5px,302px) scale(0.3,0.3)}100.000%{opacity:0;transform:translate(543.5px,302px) scale(0.3,0.3)}}.k1{animation:k1 4.80s ease-in-out infinite}@keyframes k2{0.000%{opacity:0;transform:translate(200px,422px) scale(1,1)}10.625%{opacity:0;transform:translate(200px,422px) scale(1,1)}11.625%{opacity:1;transform:translate(200px,422px) scale(1,1)}18.125%{opacity:1;transform:translate(440px,422px) scale(1,1)}22.083%{opacity:1;transform:translate(455.5833333333333px,444.0px) scale(1,1)}26.042%{opacity:1;transform:translate(471.1666666666667px,400.0px) scale(1,1)}30.000%{opacity:1;transform:translate(486.75px,444.0px) scale(1,1)}33.958%{opacity:1;transform:translate(502.3333333333333px,400.0px) scale(1,1)}37.917%{opacity:1;transform:translate(517.9166666666666px,444.0px) scale(1,1)}41.875%{opacity:1;transform:translate(533.5px,422.0px) scale(1,1)}48.125%{opacity:0;transform:translate(543.5px,422px) scale(0.3,0.3)}48.250%{opacity:0;transform:translate(543.5px,422px) scale(0.3,0.3)}100.000%{opacity:0;transform:translate(543.5px,422px) scale(0.3,0.3)}}.k2{animation:k2 4.80s ease-in-out infinite}@keyframes k3{0.000%{opacity:0;transform:translate(200px,542px) scale(1,1)}16.250%{opacity:0;transform:translate(200px,542px) scale(1,1)}17.250%{opacity:1;transform:translate(200px,542px) scale(1,1)}23.750%{opacity:1;transform:translate(440px,542px) scale(1,1)}27.708%{opacity:1;transform:translate(455.5833333333333px,564.0px) scale(1,1)}31.667%{opacity:1;transform:translate(471.1666666666667px,520.0px) scale(1,1)}35.625%{opacity:1;transform:translate(486.75px,564.0px) scale(1,1)}39.583%{opacity:1;transform:translate(502.3333333333333px,520.0px) scale(1,1)}43.542%{opacity:1;transform:translate(517.9166666666666px,564.0px) scale(1,1)}47.500%{opacity:1;transform:translate(533.5px,542.0px) scale(1,1)}53.750%{opacity:0;transform:translate(543.5px,542px) scale(0.3,0.3)}53.875%{opacity:0;transform:translate(543.5px,542px) scale(0.3,0.3)}100.000%{opacity:0;transform:translate(543.5px,542px) scale(0.3,0.3)}}.k3{animation:k3 4.80s ease-in-out infinite}@keyframes k4{0.000%{opacity:0;transform:translate(200px,662px) scale(1,1)}21.875%{opacity:0;transform:translate(200px,662px) scale(1,1)}22.875%{opacity:1;transform:translate(200px,662px) scale(1,1)}29.375%{opacity:1;transform:translate(440px,662px) scale(1,1)}33.333%{opacity:1;transform:translate(455.5833333333333px,684.0px) scale(1,1)}37.292%{opacity:1;transform:translate(471.1666666666667px,640.0px) scale(1,1)}41.250%{opacity:1;transform:translate(486.75px,684.0px) scale(1,1)}45.208%{opacity:1;transform:translate(502.3333333333333px,640.0px) scale(1,1)}49.167%{opacity:1;transform:translate(517.9166666666666px,684.0px) scale(1,1)}53.125%{opacity:1;transform:translate(533.5px,662.0px) scale(1,1)}59.375%{opacity:0;transform:translate(543.5px,662px) scale(0.3,0.3)}59.500%{opacity:0;transform:translate(543.5px,662px) scale(0.3,0.3)}100.000%{opacity:0;transform:translate(543.5px,662px) scale(0.3,0.3)}}.k4{animation:k4 4.80s ease-in-out infinite}@keyframes k5{0.000%{opacity:0;transform:translate(200px,380px) scale(0.9,0.9)}40.000%{opacity:0;transform:translate(200px,380px) scale(0.9,0.9)}41.250%{opacity:1;transform:translate(200px,380px) scale(1,1)}50.000%{opacity:1;transform:translate(390px,380px) scale(1,1)}62.500%{opacity:0;transform:translate(562.5px,380px) scale(0.25,0.25)}62.625%{opacity:0;transform:translate(562.5px,380px) scale(0.25,0.25)}100.000%{opacity:0;transform:translate(562.5px,380px) scale(0.25,0.25)}}.k5{animation:k5 4.80s ease-in-out infinite}@keyframes k6{0.000%{opacity:0;transform:translate(200px,620px) scale(0.9,0.9)}50.000%{opacity:0;transform:translate(200px,620px) scale(0.9,0.9)}51.250%{opacity:1;transform:translate(200px,620px) scale(1,1)}60.000%{opacity:1;transform:translate(390px,620px) scale(1,1)}72.500%{opacity:0;transform:translate(562.5px,620px) scale(0.25,0.25)}72.625%{opacity:0;transform:translate(562.5px,620px) scale(0.25,0.25)}100.000%{opacity:0;transform:translate(562.5px,620px) scale(0.25,0.25)}}.k6{animation:k6 4.80s ease-in-out infinite}@keyframes k7{0.000%{opacity:1}90.000%{opacity:1}98.750%{opacity:0}100.000%{opacity:0}}.k7{animation:k7 4.80s linear infinite}@media (prefers-reduced-motion:reduce){*{animation:none!important}}</style><defs></defs><rect width="1092" height="1092" fill="#FFFDF9"/><g class="k7"><rect x="0" y="0" width="640" height="1092" fill="#EFE7DA"/><rect x="0" y="0" width="1092" height="26" fill="#C2551F"/><g transform="translate(150 160)"><circle r="30" fill="#C2551F"/><path d="M0 -50L0 -72" stroke="#C2551F" stroke-width="7" stroke-linecap="round" transform="rotate(0)"/><path d="M0 -50L0 -72" stroke="#C2551F" stroke-width="7" stroke-linecap="round" transform="rotate(45)"/><path d="M0 -50L0 -72" stroke="#C2551F" stroke-width="7" stroke-linecap="round" transform="rotate(90)"/><path d="M0 -50L0 -72" stroke="#C2551F" stroke-width="7" stroke-linecap="round" transform="rotate(135)"/><path d="M0 -50L0 -72" stroke="#C2551F" stroke-width="7" stroke-linecap="round" transform="rotate(180)"/><path d="M0 -50L0 -72" stroke="#C2551F" stroke-width="7" stroke-linecap="round" transform="rotate(225)"/><path d="M0 -50L0 -72" stroke="#C2551F" stroke-width="7" stroke-linecap="round" transform="rotate(270)"/><path d="M0 -50L0 -72" stroke="#C2551F" stroke-width="7" stroke-linecap="round" transform="rotate(315)"/></g><g transform="translate(110 545)"><rect x="-24" y="-18" width="26" height="36" fill="#2B2A26"/><path d="M2 -18L38 -44V44L2 18Z" fill="#2B2A26"/></g><rect x="330" y="250" width="24" height="84" fill="#2B2A26"/><rect x="330" y="350" width="24" height="84" fill="#2B2A26"/><rect x="330" y="450" width="24" height="84" fill="#2B2A26"/><rect x="330" y="550" width="24" height="84" fill="#2B2A26"/><rect x="330" y="650" width="24" height="84" fill="#2B2A26"/><rect x="330" y="750" width="24" height="84" fill="#2B2A26"/><rect x="440" y="250" width="170" height="590" fill="#FFFDF9" stroke="#2B2A26" stroke-width="4"/><path d="M578 795L602 799" stroke="#2B2A26" stroke-width="4" stroke-linecap="round" opacity="0.5"/><path d="M580 665L565 690" stroke="#2B2A26" stroke-width="4" stroke-linecap="round" opacity="0.5"/><path d="M543 593L537 618" stroke="#2B2A26" stroke-width="4" stroke-linecap="round" opacity="0.5"/><path d="M530 468L500 503" stroke="#2B2A26" stroke-width="4" stroke-linecap="round" opacity="0.5"/><path d="M586 556L591 584" stroke="#2B2A26" stroke-width="4" stroke-linecap="round" opacity="0.5"/><path d="M457 265L461 294" stroke="#2B2A26" stroke-width="4" stroke-linecap="round" opacity="0.5"/><path d="M509 748L507 783" stroke="#2B2A26" stroke-width="4" stroke-linecap="round" opacity="0.5"/><path d="M481 267L494 288" stroke="#2B2A26" stroke-width="4" stroke-linecap="round" opacity="0.5"/><path d="M533 814L520 837" stroke="#2B2A26" stroke-width="4" stroke-linecap="round" opacity="0.5"/><path d="M596 696L566 728" stroke="#2B2A26" stroke-width="4" stroke-linecap="round" opacity="0.5"/><path d="M552 687L572 728" stroke="#2B2A26" stroke-width="4" stroke-linecap="round" opacity="0.5"/><path d="M605 341L577 368" stroke="#2B2A26" stroke-width="4" stroke-linecap="round" opacity="0.5"/><path d="M519 540L520 584" stroke="#2B2A26" stroke-width="4" stroke-linecap="round" opacity="0.5"/><path d="M516 712L535 751" stroke="#2B2A26" stroke-width="4" stroke-linecap="round" opacity="0.5"/><path d="M586 502L577 545" stroke="#2B2A26" stroke-width="4" stroke-linecap="round" opacity="0.5"/><path d="M545 528L568 547" stroke="#2B2A26" stroke-width="4" stroke-linecap="round" opacity="0.5"/><path d="M567 353L540 361" stroke="#2B2A26" stroke-width="4" stroke-linecap="round" opacity="0.5"/><path d="M603 435L564 441" stroke="#2B2A26" stroke-width="4" stroke-linecap="round" opacity="0.5"/><path d="M534 539L517 571" stroke="#2B2A26" stroke-width="4" stroke-linecap="round" opacity="0.5"/><path d="M499 359L497 403" stroke="#2B2A26" stroke-width="4" stroke-linecap="round" opacity="0.5"/><path d="M559 296L526 317" stroke="#2B2A26" stroke-width="4" stroke-linecap="round" opacity="0.5"/><path d="M591 363L575 380" stroke="#2B2A26" stroke-width="4" stroke-linecap="round" opacity="0.5"/><path d="M530 403L563 432" stroke="#2B2A26" stroke-width="4" stroke-linecap="round" opacity="0.5"/><path d="M482 551L457 564" stroke="#2B2A26" stroke-width="4" stroke-linecap="round" opacity="0.5"/><path d="M479 740L489 778" stroke="#2B2A26" stroke-width="4" stroke-linecap="round" opacity="0.5"/><path d="M442 458L475 477" stroke="#2B2A26" stroke-width="4" stroke-linecap="round" opacity="0.5"/><path d="M446 799L485 802" stroke="#2B2A26" stroke-width="4" stroke-linecap="round" opacity="0.5"/><path d="M468 401L446 415" stroke="#2B2A26" stroke-width="4" stroke-linecap="round" opacity="0.5"/><path d="M476 642L484 663" stroke="#2B2A26" stroke-width="4" stroke-linecap="round" opacity="0.5"/><path d="M580 347L610 351" stroke="#2B2A26" stroke-width="4" stroke-linecap="round" opacity="0.5"/><path d="M527 676L555 686" stroke="#2B2A26" stroke-width="4" stroke-linecap="round" opacity="0.5"/><path d="M473 503L444 529" stroke="#2B2A26" stroke-width="4" stroke-linecap="round" opacity="0.5"/><path d="M600 681L564 697" stroke="#2B2A26" stroke-width="4" stroke-linecap="round" opacity="0.5"/><path d="M528 378L514 404" stroke="#2B2A26" stroke-width="4" stroke-linecap="round" opacity="0.5"/><path d="M480 511L457 520" stroke="#2B2A26" stroke-width="4" stroke-linecap="round" opacity="0.5"/><path d="M538 472L536 498" stroke="#2B2A26" stroke-width="4" stroke-linecap="round" opacity="0.5"/><path d="M596 394L585 425" stroke="#2B2A26" stroke-width="4" stroke-linecap="round" opacity="0.5"/><path d="M446 573L467 583" stroke="#2B2A26" stroke-width="4" stroke-linecap="round" opacity="0.5"/><path d="M441 349L477 360" stroke="#2B2A26" stroke-width="4" stroke-linecap="round" opacity="0.5"/><path d="M549 812L504 821" stroke="#2B2A26" stroke-width="4" stroke-linecap="round" opacity="0.5"/><path d="M474 501L500 527" stroke="#2B2A26" stroke-width="4" stroke-linecap="round" opacity="0.5"/><path d="M551 703L534 725" stroke="#2B2A26" stroke-width="4" stroke-linecap="round" opacity="0.5"/><path d="M503 560L525 560" stroke="#2B2A26" stroke-width="4" stroke-linecap="round" opacity="0.5"/><path d="M521 316L503 337" stroke="#2B2A26" stroke-width="4" stroke-linecap="round" opacity="0.5"/><path d="M458 357L478 375" stroke="#2B2A26" stroke-width="4" stroke-linecap="round" opacity="0.5"/><path d="M517 510L538 540" stroke="#2B2A26" stroke-width="4" stroke-linecap="round" opacity="0.5"/><path d="M504 771L465 776" stroke="#2B2A26" stroke-width="4" stroke-linecap="round" opacity="0.5"/><path d="M519 540L513 563" stroke="#2B2A26" stroke-width="4" stroke-linecap="round" opacity="0.5"/><path d="M503 553L524 566" stroke="#2B2A26" stroke-width="4" stroke-linecap="round" opacity="0.5"/><path d="M569 448L567 492" stroke="#2B2A26" stroke-width="4" stroke-linecap="round" opacity="0.5"/><path d="M556 426L525 428" stroke="#2B2A26" stroke-width="4" stroke-linecap="round" opacity="0.5"/><path d="M443 645L471 654" stroke="#2B2A26" stroke-width="4" stroke-linecap="round" opacity="0.5"/><path d="M557 641L590 643" stroke="#2B2A26" stroke-width="4" stroke-linecap="round" opacity="0.5"/><path d="M498 526L527 548" stroke="#2B2A26" stroke-width="4" stroke-linecap="round" opacity="0.5"/><path d="M456 403L473 444" stroke="#2B2A26" stroke-width="4" stroke-linecap="round" opacity="0.5"/><path d="M450 678L480 698" stroke="#2B2A26" stroke-width="4" stroke-linecap="round" opacity="0.5"/><rect x="440" y="250" width="24" height="590" fill="#2B2A26"/><g class="k1 " ><circle r="10" fill="#C2551F"/></g><g class="k2 " ><circle r="10" fill="#C2551F"/></g><g class="k3 " ><circle r="10" fill="#C2551F"/></g><g class="k4 " ><circle r="10" fill="#C2551F"/></g><g class="k5 " ><path d="M0 -44Q24 0 0 44M30 -44Q54 0 30 44M60 -44Q84 0 60 44" fill="none" stroke="#2B2A26" stroke-width="7" stroke-linecap="round"/></g><g class="k6 " ><path d="M0 -44Q24 0 0 44M30 -44Q54 0 30 44M60 -44Q84 0 60 44" fill="none" stroke="#2B2A26" stroke-width="7" stroke-linecap="round"/></g></g></svg>